<svg width="139" height="36" viewBox="0 0 139 36" fill="none" xmlns="http://www.w3.org/2000/svg">
<path d="M118.82 19.5V16.25H122.07V19.5H118.82ZM131.82 29.25H135.07V32.5H131.82H128.57H125.32H122.07H118.82V29.25H122.07V26H125.32V22.75V19.5H128.57V16.25H125.32H122.07V13H125.32H128.57H131.82H135.07V16.25V19.5H131.82V22.75V26H128.57V29.25H131.82ZM135.07 29.25V26H138.32V29.25H135.07Z" fill="#BB124D"/>
<path d="M112.32 32.5H109.07V29.25H105.82V26V22.75V19.5V16.25H109.07V13H112.32V16.25V19.5V22.75V26V29.25H115.57V32.5H112.32ZM109.07 13H105.82V9.75V6.5H109.07V3.25H112.32V6.5V9.75H109.07V13Z" fill="#BB124D"/>
<path d="M92.82 32.5H89.57V29.25H86.32V32.5H83.07H79.82V29.25H76.57V26V22.75V19.5V16.25V13V9.75V6.5H73.32V3.25H76.57H79.82V0H83.07V3.25V6.5V9.75V13V16.25V19.5V22.75V26V29.25H86.32V26V22.75V19.5V16.25V13V9.75V6.5V3.25H89.57V0H92.82V3.25V6.5V9.75V13V16.25V19.5V22.75V26V29.25H96.07V32.5H92.82ZM96.07 29.25V26V22.75V19.5V16.25V13V9.75V6.5V3.25H99.32V0H102.57V3.25V6.5V9.75V13V16.25V19.5V22.75V26H99.32V29.25H96.07Z" fill="#BB124D"/>
<path d="M66.82 32.5H63.57V29.25H60.32V26V22.75V19.5V16.25H57.07V13H60.32V9.75V6.5V3.25H63.57V0H66.82V3.25V6.5V9.75V13H70.07V16.25H66.82V19.5V22.75V26V29.25H70.07V32.5H66.82Z" fill="#BB124D"/>
<path d="M47.32 32.5H44.07H40.82V29.25H44.07H47.32V26H44.07V22.75H40.82V19.5H37.57V16.25H40.82V13H44.07H47.32H50.57V16.25V19.5H47.32V16.25H44.07V19.5H47.32V22.75H50.57H53.82V26V29.25H50.57V32.5H47.32ZM40.82 29.25H37.57V26H40.82V29.25Z" fill="#BB124D"/>
<path d="M27.82 29.25H31.07V32.5H27.82H24.57H21.32V29.25H18.07V26V22.75V19.5H21.32V16.25H24.57V19.5V22.75H27.82V26H24.57V29.25H27.82ZM31.07 29.25V26H34.32V29.25H31.07ZM27.82 22.75V19.5V16.25H24.57V13H27.82H31.07H34.32V16.25V19.5H31.07V22.75H27.82Z" fill="#BB124D"/>
<path d="M3.25 35.75V32.5V29.25V26V22.75V19.5H0V16.25H3.25V13V9.75V6.5H0V3.25H3.25H6.5H9.75V0H13H16.25V3.25H19.5V6.5V9.75H16.25V6.5H13V9.75H9.75V13H13H16.25V16.25H13V19.5H9.75V22.75V26V29.25V32.5H6.5V35.75H3.25Z" fill="#BB124D"/>
</svg>
